<svg width="13" height="13" viewBox="0 0 13 13" fill="none" xmlns="http://www.w3.org/2000/svg">
<path fill-rule="evenodd" clip-rule="evenodd" d="M5.5015 1.0887C5.50177 1.0843 5.50193 1.08435 5.5015 1.0887V1.0887ZM5.50064 2.90567V4.2847C5.73391 4.23395 5.96747 4.18528 6.20128 4.13849C5.96726 3.7286 5.7328 3.31754 5.50064 2.90567ZM7.24093 3.94238C7.20162 3.87353 7.16232 3.80471 7.12304 3.73594C6.59668 2.81435 6.07375 1.89876 5.56788 0.960794C5.55398 0.935026 5.54192 0.909978 5.52667 0.878305C5.52468 0.874173 5.52264 0.869928 5.52053 0.865555C5.52012 0.864718 5.51953 0.863456 5.51875 0.861811C5.50927 0.841658 5.47271 0.763934 5.42613 0.70372C5.41046 0.683466 5.3738 0.638301 5.31536 0.596274C5.25963 0.556199 5.12286 0.476136 4.9361 0.506865C4.74256 0.538709 4.63561 0.665581 4.59203 0.733086C4.54921 0.799414 4.5314 0.860854 4.52425 0.888157C4.50059 0.978432 4.50062 1.08073 4.50064 1.13107L4.50064 4.51608C3.54873 4.75012 2.60248 5.02403 1.66439 5.3519C1.60414 5.37296 1.55756 5.3875 1.5038 5.40428C1.45127 5.42068 1.39189 5.43921 1.30618 5.46807C1.1774 5.51142 1.00564 5.57371 0.865447 5.65998C0.796149 5.70262 0.697248 5.77317 0.620004 5.88222C0.532158 6.00624 0.470172 6.18727 0.52278 6.39205C0.568861 6.57143 0.684241 6.69146 0.771375 6.763C0.86311 6.83832 0.972332 6.89981 1.0854 6.95258C2.02553 7.39131 3.01002 7.74847 3.96277 8.09411C4.12001 8.15116 4.27638 8.20789 4.43154 8.26462C4.45491 8.27316 4.47794 8.28158 4.50064 8.28987V10.0205C4.50064 10.2256 4.62413 10.4018 4.80082 10.4789C4.54732 10.7963 4.29462 11.1111 4.0414 11.4206C3.86653 11.6344 3.89804 11.9494 4.11176 12.1242C4.32548 12.2991 4.64049 12.2676 4.81536 12.0539C5.17853 11.61 5.53237 11.1661 5.88401 10.7249C6.2854 10.2214 6.6839 9.72144 7.09012 9.22929C7.27124 9.29692 7.48136 9.37586 7.73298 9.47088C7.89155 9.53076 8.02889 9.60075 8.18955 9.68262C8.28229 9.72988 8.3828 9.7811 8.49964 9.83662C8.7846 9.97202 9.13512 10.1131 9.53458 10.1229C9.63017 10.1253 9.74545 10.101 9.85028 10.0245C9.95066 9.95128 10.0025 9.85857 10.0283 9.79077C10.0733 9.67264 10.0639 9.56706 10.0607 9.5339C10.0523 9.44775 10.0265 9.36319 10.0079 9.30696C9.96583 9.17999 9.89701 9.01524 9.81755 8.83774C9.65596 8.4767 9.42229 8.00114 9.18548 7.53265C9.11355 7.39035 9.04094 7.24794 8.9695 7.1087C9.86583 6.17218 10.8072 5.28493 11.7954 4.43934C11.8246 4.41441 11.854 4.3915 11.8904 4.36319C11.9003 4.35556 11.9106 4.34752 11.9216 4.33896C11.9234 4.33755 11.9253 4.33601 11.9275 4.33435C11.9623 4.30729 12.0406 4.24631 12.0977 4.17809C12.1164 4.15582 12.1448 4.11901 12.1702 4.06975C12.1941 4.02327 12.2316 3.9346 12.2294 3.81791C12.227 3.68396 12.1728 3.55814 12.0803 3.46473C11.9999 3.38348 11.9122 3.34812 11.8625 3.3323C11.7681 3.30227 11.6803 3.30273 11.6397 3.30365C11.5875 3.30482 11.5324 3.31017 11.4783 3.31711C10.0641 3.49841 8.64901 3.69203 7.24093 3.94238ZM6.72388 5.05498C6.31452 5.13376 5.90675 5.21793 5.50064 5.30864V7.58934C5.78862 7.69341 6.00543 7.77086 6.19892 7.83998C6.39848 7.91127 6.57324 7.9737 6.77569 8.04733C6.98968 7.79562 7.20639 7.54663 7.42652 7.30178C7.5357 7.18034 7.64554 7.05971 7.75607 6.93986C7.53923 6.52434 7.37348 6.21297 7.33708 6.1446C7.33189 6.13485 7.32933 6.13005 7.32962 6.13057C7.13088 5.77334 6.92835 5.41472 6.72388 5.05498ZM8.48315 6.17274C8.31708 5.85676 8.20592 5.64878 8.20349 5.6444C8.05815 5.38315 7.91235 5.12385 7.76639 4.8659C8.57976 4.72679 9.39918 4.60494 10.2242 4.49161C9.62681 5.03448 9.04655 5.59428 8.48315 6.17274ZM11.6622 4.30339C11.6665 4.30329 11.6654 4.30358 11.6599 4.30348L11.6622 4.30339ZM8.24448 7.88794C8.21968 7.91536 8.19491 7.94283 8.17018 7.97034C8.03695 8.11853 7.90537 8.26782 7.7751 8.4181C7.87156 8.45436 7.97493 8.49332 8.08627 8.53537C8.29372 8.61371 8.51781 8.72719 8.70803 8.82357C8.58418 8.56506 8.44068 8.2759 8.29302 7.98377C8.27686 7.95181 8.26067 7.91985 8.24448 7.88794ZM6.09562 8.86506C6.0226 8.8389 5.9489 8.81258 5.87123 8.78484C5.75923 8.74484 5.63898 8.7019 5.50064 8.65225V9.60208C5.69756 9.35609 5.89569 9.11001 6.09562 8.86506ZM4.50064 7.22548V5.54667C3.67134 5.75686 2.84923 5.99861 2.03479 6.2818C2.76954 6.59715 3.52803 6.87244 4.29762 7.15176C4.36521 7.17629 4.43288 7.20085 4.50064 7.22548Z" fill="black"/>
</svg>